<?xml version="1.0" encoding="utf-8"?>
<!-- Generator: Adobe Illustrator 28.3.0, SVG Export Plug-In . SVG Version: 6.00 Build 0)  -->
<svg version="1.1" id="Layer_1" xmlns="http://www.w3.org/2000/svg" xmlns:xlink="http://www.w3.org/1999/xlink" x="0px" y="0px"
	 viewBox="0 0 56 56" style="enable-background:new 0 0 56 56;" xml:space="preserve">
<style type="text/css">
	.st0{fill:#FFFFFF;}
</style>
<g>
	<path d="M44.56,34.89h6.47l-6.47-15.96C44.47,9.11,36.59,2,25.77,2C15.41,2,6.98,10.47,6.98,20.87v30.99H6.45v2.82h2.81v-2.82H8.73
		V20.87c0-9.44,7.64-17.11,17.04-17.11c4.7,0,9,1.48,12.1,4.17c3.24,2.81,4.94,6.67,4.94,11.17v0.17l5.61,13.85h-5.61v18.73h-0.53
		v2.82h2.81v-2.82h-0.53L44.56,34.89L44.56,34.89z"/>
	<path d="M39.6,22.73c0-7.66-6.21-13.9-13.84-13.9s-13.84,6.23-13.84,13.9v29.14h-0.53v2.82h2.81v-2.82h-0.53V22.73
		c0-6.69,5.42-12.13,12.08-12.13s12.08,5.44,12.08,12.13v29.14H37.3v2.82h2.81v-2.82h-0.53L39.6,22.73L39.6,22.73z"/>
	<path d="M34.36,23.26c0-4.76-3.85-8.63-8.59-8.63s-8.59,3.87-8.59,8.63v28.61h-0.57v2.82h2.81v-2.82h-0.48V23.26
		c0-3.79,3.06-6.86,6.83-6.86s6.83,3.08,6.83,6.86v28.61h-0.53v2.82h2.81v-2.82h-0.53L34.36,23.26L34.36,23.26z"/>
	<path d="M29.14,24.22c0-1.87-1.51-3.38-3.37-3.38s-3.37,1.52-3.37,3.38v27.64h-0.53v2.82h2.81v-2.82h-0.53V24.22
		c0-0.89,0.72-1.62,1.61-1.62c0.89,0,1.61,0.73,1.61,1.62v27.64h-0.53v2.82h2.81v-2.82h-0.51V24.22z"/>
</g>
<g>
	<path class="st0" d="M43.82,34.55h6.47l-6.47-15.96C43.73,8.77,35.85,1.66,25.03,1.66c-10.36,0-18.79,8.47-18.79,18.87v30.99H5.71
		v2.82h2.81v-2.82H7.99V20.53c0-9.44,7.64-17.11,17.04-17.11c4.7,0,9,1.48,12.1,4.17c3.24,2.81,4.94,6.67,4.94,11.17v0.17
		l5.61,13.85h-5.61v18.73h-0.53v2.82h2.81v-2.82h-0.53L43.82,34.55L43.82,34.55z"/>
	<path class="st0" d="M38.86,22.39c0-7.66-6.21-13.9-13.84-13.9s-13.84,6.23-13.84,13.9v29.14h-0.53v2.82h2.81v-2.82h-0.53V22.39
		c0-6.69,5.42-12.13,12.08-12.13s12.08,5.44,12.08,12.13v29.14h-0.53v2.82h2.81v-2.82h-0.53L38.86,22.39L38.86,22.39z"/>
	<path class="st0" d="M33.62,22.92c0-4.76-3.85-8.63-8.59-8.63s-8.59,3.87-8.59,8.63v28.61h-0.57v2.82h2.81v-2.82H18.2V22.92
		c0-3.79,3.06-6.86,6.83-6.86s6.83,3.08,6.83,6.86v28.61h-0.53v2.82h2.81v-2.82h-0.53L33.62,22.92L33.62,22.92z"/>
	<path class="st0" d="M28.4,23.88c0-1.87-1.51-3.38-3.37-3.38s-3.37,1.52-3.37,3.38v27.64h-0.53v2.82h2.81v-2.82h-0.53V23.88
		c0-0.89,0.72-1.62,1.61-1.62c0.89,0,1.61,0.73,1.61,1.62v27.64H26.1v2.82h2.81v-2.82H28.4V23.88z"/>
</g>
</svg>
